PathFileType	4	(X/Y/Z)	40_2_23_p0_0-250_filt_butterworth.trc
DataRate	CameraRate	NumFrames	NumMarkers	Units	OrigDataRate	OrigDataStartFrame	OrigNumFrames
60.0	60.0	7	27	m	60.0	218	250
Frame#	Time	RHip			RKnee			RAnkle			RBigToe			RSmallToe			RHeel			LHip			LKnee			LAnkle			LBigToe			LSmallToe			LHeel			Neck			Head			Nose			RShoulder			RElbow			RWrist			RThumb			RIndex			RPinky			LShoulder			LElbow			LWrist			LThumb			LIndex			LPinky			
		X1	Y1	Z1	X2	Y2	Z2	X3	Y3	Z3	X4	Y4	Z4	X5	Y5	Z5	X6	Y6	Z6	X7	Y7	Z7	X8	Y8	Z8	X9	Y9	Z9	X10	Y10	Z10	X11	Y11	Z11	X12	Y12	Z12	X13	Y13	Z13	X14	Y14	Z14	X15	Y15	Z15	X16	Y16	Z16	X17	Y17	Z17	X18	Y18	Z18	X19	Y19	Z19	X20	Y20	Z20	X21	Y21	Z21	X22	Y22	Z22	X23	Y23	Z23	X24	Y24	Z24	X25	Y25	Z25	X26	Y26	Z26	X27	Y27	Z27	
218	3.633333333333333	0.3335328392851131	0.6992083699855556	0.8545520410905495	0.32897844701563284	0.7925641321795017	1.2958241451219903	0.32783893639168077	0.9415071745596775	1.69673242905847	0.30212277085411604	0.7095579666267726	1.7242322053498729	0.35457972712091845	0.7500781856723517	1.7334072502531255	0.30072799961242486	1.039649787603936	1.7640575861220018	0.12165008869374688	0.6814470671771908	0.8605320541091649	0.11998211180123514	0.774216226211101	1.288644499507853	0.10895358634506142	0.8732399914627063	1.6958125070043972	0.14934347763790545	0.6679506102886463	1.6958448452598751	0.0891507788643084	0.7256042450248292	1.71856586276724	0.10846153280371626	0.9859227724274979	1.766090440213723	0.25367575179304735	0.5197387657773349	0.3244090079358439	0.26284040932178016	0.44804385605531616	0.09483891804852985	0.27015822254973576	0.4157864457107321	0.21358277669318948	0.4135994887277029	0.5906670409666565	0.4330049517410447	0.5072480022029814	0.603361741803897	0.6479987218022011	0.6818702760030871	0.5498731171418912	0.8068211785226366	0.7798517695052922	0.49335841371653966	0.8572580229606482	0.8069484786034589	0.5374757860384729	0.8613506533262647	0.7838338238428342	0.5405118925771817	0.8683739975122408	0.09071138638047416	0.5671489747096741	0.4038463560476875	-0.031434192786071506	0.6356749990627564	0.6187846881383836	-0.20988664836494864	0.566102184706281	0.7670966645873358	-0.2697213074887608	0.4778868328061685	0.7793309743675625	-0.3126637264135956	0.5094526049694275	0.7864676769836516	-0.2953827695548255	0.5528675101950132	0.8251360872639089
219	3.65	0.33358711973727334	0.6992184612573249	0.8546534383361438	0.329671240712922	0.7962526683108776	1.2961663087901565	0.32841528984217894	0.9409820121720995	1.6960203538356278	0.30142659477615297	0.7031922038853463	1.7205041773473961	0.3545989834431121	0.7502089805959921	1.7322189519087794	0.3008174986982271	1.0395418427498306	1.7640597312606177	0.12104288765398698	0.6813045671476129	0.8608759691123309	0.11982845426047248	0.7743474812616098	1.2873121264086067	0.10884057575358981	0.8734602074159656	1.695020628968487	0.14944766578917867	0.6638687605009016	1.693034519558323	0.08925115626132075	0.7245516011482115	1.7181261845432587	0.10845854102663732	0.9858772416566004	1.7661092566935506	0.25360095330251087	0.5198339606745837	0.32454247499044336	0.26284201011316327	0.44811325222828746	0.09484620459743731	0.26953528455948295	0.41259187790216323	0.21400618775091404	0.41362239592288036	0.5905480557149333	0.4321488664497996	0.5092831019185124	0.6121425411339652	0.6455772966431288	0.6948116829554554	0.5694644052649507	0.8021973690396043	0.7884649477529819	0.5093740702829505	0.8564531342060161	0.81618354190413	0.5570511329576572	0.859281836382392	0.7911146503737176	0.5483699974354899	0.8629398360850585	0.09069601556454243	0.5671499659470838	0.40383185107900366	-0.038992842600983624	0.6457671538696051	0.6178614540755526	-0.2152230489063961	0.5681078040906158	0.7664887773847673	-0.28366553473735884	0.49635736290118665	0.7813318584035731	-0.32114575745496704	0.5119813208301564	0.7860327193774765	-0.30056531649782703	0.5506033362721718	0.8132929425850781
220	3.6666666666666665	0.3336011627144564	0.6992567361678139	0.8546472750153455	0.33096686025380906	0.8011029829475385	1.2970581945135113	0.32853848805889263	0.9408781431217312	1.695824041078641	0.3006530292641472	0.6993267394241431	1.7172743016930199	0.35437220071018	0.750422361253655	1.7305707608673426	0.3007239294876368	1.0396106170396338	1.7637573704358638	0.12073225518109915	0.6814838840787356	0.8618326099465705	0.11971918507176854	0.7744326696054242	1.2862795944164356	0.10862199044052878	0.8737073031232045	1.6944910891106062	0.149689629670516	0.6600881284355219	1.6918784083976748	0.08991448882524108	0.7245545408511868	1.7177863493444419	0.10837167382071144	0.9860357880830405	1.76624062518523	0.2535976381529921	0.5201366886774174	0.3253483814227143	0.262761146943685	0.4481745250185444	0.09482565852294648	0.268851344121214	0.4083785554381606	0.21453201124380825	0.41353640584019835	0.5898324342225921	0.43100944284797615	0.5118512570095566	0.6230041535369542	0.6431678188732635	0.7031464269140419	0.5850914583146667	0.7998753383221355	0.7919799133490564	0.5257419887733428	0.8571433050693719	0.8218376036964197	0.5693874338798914	0.8568353051421393	0.7996620378910553	0.5583112714517641	0.8608397865393501	0.09070058071218497	0.5671133942895399	0.4038138772585722	-0.04536506568065073	0.652150390360343	0.6168881208460107	-0.2220396702041548	0.5732036300105441	0.7655339007972012	-0.2950495046593822	0.5071703970864013	0.782337941960066	-0.33219611417963585	0.5209222062954073	0.7864391224895179	-0.3040916164850651	0.5490934502280251	0.8071749859208611
221	3.683333333333333	0.3335507127193911	0.6993416459598472	0.8542298526575232	0.3326138586164484	0.8048899518569443	1.2982618860434703	0.3278396277826972	0.9427374102824682	1.696516988217457	0.30020183786293864	0.6980998126905623	1.715590381707865	0.35413149691350326	0.75047952336717	1.729363691051846	0.30058220017549186	1.0397154739230203	1.7634081542508426	0.12053762704255531	0.6816338422871997	0.8628034542314935	0.11967934682517893	0.7744431848985635	1.2858381267131553	0.10834225313140475	0.8736516810641658	1.6947404100590036	0.14996864719088954	0.6598200448389977	1.6922892562751572	0.09127774440886509	0.7248942766074038	1.716902858831153	0.1082345853900056	0.9863159534014153	1.7664568518309631	0.2536599040532625	0.5206966966717566	0.32682620106812493	0.262697412995585	0.4482536891263761	0.09480151641448954	0.2684298629641137	0.40539171345127617	0.21488809652301286	0.41347341097740903	0.5893675640364373	0.4301122160788619	0.5141678586537803	0.632450216349574	0.6415032313333038	0.7073928322905606	0.5931940204368339	0.7986577023397906	0.7915668412059135	0.5340935332833688	0.8582046058074391	0.8248994798278598	0.5745191014317024	0.8551012665053108	0.8085982649469411	0.5718366710735701	0.8604781749068653	0.09074403621255345	0.5670431823434222	0.40380605665610086	-0.049503147777773315	0.6540956205010385	0.6160895996630086	-0.2305253572184922	0.5827163763400017	0.7652731906783709	-0.3036834860761669	0.5121305681004631	0.7828226804862054	-0.34683270554004714	0.5375587767913885	0.7885524521448248	-0.3065288460227098	0.5510227313131894	0.8092106575801594
222	3.7	0.33343285361417635	0.6994765890389775	0.8531879271571311	0.3341154629734813	0.8067216440979721	1.2990855634898428	0.3260675437073219	0.9475306861691775	1.6983192775050155	0.30013171695417934	0.697987000783047	1.7155801958690469	0.3540771274379022	0.7501866026412718	1.7291982770033347	0.30052004557982087	1.0396765655184865	1.763167836965175	0.12065287692418179	0.6815257696756475	0.8630630738060455	0.11967086782572649	0.7744170593306534	1.2857921719127317	0.10811006011998184	0.8734511841371385	1.695404460222878	0.15026208397851945	0.6630725188120343	1.6937257519716526	0.09282300392541017	0.7252664668435559	1.7153621582131398	0.10812312126064542	0.9864067294996086	1.7666053524819838	0.2537296569584822	0.5213388516760861	0.3283714075287805	0.2626496377249773	0.4483329815664059	0.0947968484400272	0.2684899887239126	0.4053169068945	0.21486675554645351	0.41343454540437224	0.5892393556513299	0.4297141174264518	0.515648071829412	0.6383931925382189	0.640897733028202	0.7092583118809026	0.5951058223434611	0.7978360775936025	0.7901182307192807	0.5338210214797154	0.8586911683325023	0.8270456619420196	0.5760456992045747	0.8552970664462695	0.814551159011287	0.5839810445309679	0.860774616790307	0.09082223141909435	0.5669642462837059	0.40379865306089185	-0.0513707801051654	0.6538861775006458	0.6155917896246313	-0.23946859090892322	0.5962724777871315	0.7668028751285746	-0.31029804707470054	0.5170865942065979	0.7836734115053394	-0.3625413590566673	0.5579515369531243	0.7930116593964539	-0.30767220347250707	0.5561781054448235	0.8186008211817057
223	3.716666666666667	0.33329482116903253	0.6996202098954036	0.851826133344864	0.3350320688577004	0.8074141594293025	1.2989498916525846	0.3237521424918723	0.9538457678987313	1.7006713101247666	0.3002847219251293	0.6977491400121243	1.7167663065874783	0.3541970521446094	0.7495557523042787	1.7300974840471786	0.3005672640839186	1.039416468007584	1.7630397902038217	0.12151013966729299	0.6811723359109774	0.862178420325598	0.1196559516583101	0.7743702947143907	1.2858649871754357	0.10791889730678364	0.8733852329788911	1.6957991461764688	0.1505834199348883	0.6666839234497098	1.695489623295648	0.09372994812749415	0.7256860150250051	1.7143914989611218	0.10810576643476297	0.9861647645600713	1.7665791767844463	0.2537823871988269	0.5217324898754253	0.3293899749576658	0.2626048088058158	0.44838922267791426	0.09481816711231027	0.2689996569684671	0.4081529058798208	0.21446172154872487	0.4134079376494414	0.589293215530606	0.4296697212827749	0.5161107626319423	0.6403123523491622	0.6408814272777411	0.7095829637762425	0.593477034194358	0.7973190051131208	0.7900049770673071	0.5282997602824653	0.8583458396737618	0.8286334319229023	0.5762641304176129	0.8573260376179559	0.8149866250218872	0.5911342218651574	0.8617115475874323	0.09080525032378754	0.5669091314758563	0.4037816236586156	-0.0517427290027825	0.6533360348129339	0.6153873337241438	-0.24607363786793715	0.60963142579792	0.770167506532095	-0.31503490630248127	0.5261033087119814	0.7863630970302339	-0.37431984456438916	0.5755773929662692	0.8003044146180323	-0.3075200782583069	0.5640586570829622	0.8320479727578801
224	3.733333333333333	0.33320810308110593	0.6996889983077373	0.85079877298138	0.335331392909879	0.8077464778918672	1.297833449797428	0.321976403944077	0.9586932182020287	1.7024752828707606	0.3005281666889812	0.6975103847743166	1.7183617289776585	0.35434779727364973	0.748861779967485	1.7315395503450248	0.3006207904428409	1.0391390392097022	1.763007336850821	0.12321760797978687	0.6809122406890549	0.8605263200319676	0.11963667664704161	0.7743144159929853	1.2859275439177726	0.1076264042823295	0.8733242042977025	1.6955942102520114	0.150852751979828	0.6685845572016758	1.6969182563177139	0.09376314070416089	0.7262116520955678	1.715609527704571	0.1081635641688827	0.9861456670764743	1.7665662205076007	0.253866108131688	0.5217030607064013	0.3301522517756009	0.2625691251700953	0.4484232780832048	0.09484961017527539	0.26955143717553054	0.41249257260501526	0.21386322236830246	0.4134026058252198	0.5894085499830951	0.42974272807704494	0.5154245832294658	0.6375551962284702	0.6409399636714446	0.7077055714032457	0.5888322384433625	0.7980945634439294	0.7909961590624415	0.5173309019580372	0.8575226438283712	0.8282522158966277	0.5740535476269311	0.8601442759234793	0.8101720847974472	0.5962620658820369	0.8645809512426792	0.09038230168056581	0.5668441371092992	0.4037893540549123	-0.05108424603862241	0.6517988988064569	0.6158913395842615	-0.2472858137657539	0.6159915727868889	0.774487167998193	-0.3180616463402685	0.5384271608341712	0.7933991124866842	-0.37881530609233793	0.5863760094021155	0.8104133771927529	-0.30635207487933513	0.5730499228407416	0.8449045283501219
